<svg width="1000" height="1000" viewBox="0 0 1000 1000" fill="none" xmlns="http://www.w3.org/2000/svg">
<path d="M182.561 105.83C214.301 82.8331 334.915 162.554 373.004 162.554C415.854 148.756 434.898 -3.02037 488.857 0.045826C542.817 3.11203 555.513 153.356 607.885 154.889C660.257 156.422 747.543 64.4359 790.393 84.3662C833.243 104.296 757.066 239.209 790.393 276.004C823.721 312.798 980.837 291.335 985.598 329.662C990.359 367.99 875.812 449.757 869.744 482.972C864.983 509.035 1004.64 593.356 999.881 627.084C991.398 687.177 817.246 673.337 804.676 699.139C791.98 725.202 849.113 888.477 826.895 895.376C782.458 909.174 660.256 823.321 628.516 834.052C596.494 844.879 558.686 1008.83 515.837 999.627C477.075 991.306 433.311 843.251 395.223 843.251C365.111 843.251 247.629 930.638 214.301 916.84C180.719 902.936 233.346 729.801 211.127 712.937C181.543 690.483 37.5675 710.87 16.0668 671.544C-1.5349 639.349 136.681 535.098 138.268 512.101C139.855 489.105 -3.12198 395.586 0.0520782 361.857C3.22614 328.129 176.212 337.328 198.431 299C210.469 278.234 150.82 128.826 182.561 105.83Z" fill="#DDAC2E"/>
<path d="M182.376 106.498C214.084 83.5189 334.576 163.181 372.627 163.181L627.88 834.176C595.891 844.995 558.121 1008.82 515.315 999.627C476.592 991.312 432.873 843.368 394.823 843.368C364.741 843.368 247.378 930.689 214.084 916.902C180.536 903.009 233.109 730.003 210.913 713.152C181.36 690.714 37.5295 711.086 16.0506 671.789C-1.53335 639.618 136.543 535.445 138.128 512.466C139.714 489.487 -3.11882 396.038 0.0520255 362.335C3.22287 328.632 176.034 337.823 198.23 299.524C210.256 278.774 150.667 129.478 182.376 106.498Z" fill="#E3BB51"/>
<ellipse cx="499.649" cy="501.11" rx="305.079" ry="296.808" fill="#0D3C5E"/>
<path d="M580.624 584.939C682.246 507.502 676.959 376.926 628.284 249.418C625.102 241.082 633.329 232.976 641.284 237.018C731.357 282.788 786.657 368.266 801.899 443.27C819.555 530.153 781.106 655.152 737.903 703.559C691.244 755.84 545.507 829.255 406.106 785.663C352.765 770.634 276.134 723 235.36 651.28C231.082 643.755 238.359 635.439 246.669 637.862C372.341 674.508 523.516 682.377 577.825 588.132C578.531 586.906 579.499 585.796 580.624 584.939Z" fill="#919191"/>
<path d="M343.459 585.63C343.281 583.104 341.86 581.758 340.438 581.758C339.016 581.758 337.594 583.104 337.417 585.63C337.239 588.155 336.706 591.859 335.462 592.869C334.218 593.879 328.353 594.216 326.221 594.721C324.088 595.226 323.733 596.236 323.733 597.415C323.733 598.593 324.977 599.435 326.221 599.772C327.465 600.108 333.862 600.95 335.106 601.792C336.35 602.634 337.341 608.189 337.594 609.873C337.95 612.23 338.661 612.903 340.438 612.903C342.215 612.903 342.926 612.23 343.281 609.873C343.535 608.189 344.525 602.634 345.769 601.792C347.013 600.95 353.411 600.108 354.655 599.772C355.899 599.435 357.143 598.593 357.143 597.415C357.143 596.236 356.787 595.226 354.655 594.721C352.522 594.216 346.658 593.879 345.414 592.869C344.17 591.859 343.637 588.155 343.459 585.63Z" fill="#E3BB51"/>
<path d="M376.869 621.225C376.691 618.699 375.27 617.353 373.848 617.353C372.426 617.353 371.004 618.699 370.827 621.225C370.649 623.75 370.116 627.454 368.872 628.464C367.628 629.474 361.763 629.811 359.631 630.316C357.498 630.821 357.143 631.831 357.143 633.01C357.143 634.188 358.387 635.03 359.631 635.367C360.875 635.703 367.272 636.545 368.516 637.387C369.76 638.229 370.751 643.784 371.004 645.468C371.36 647.825 372.071 648.498 373.848 648.498C375.625 648.498 376.336 647.825 376.691 645.468C376.945 643.784 377.935 638.229 379.179 637.387C380.423 636.545 386.821 635.703 388.065 635.367C389.309 635.03 390.553 634.188 390.553 633.01C390.553 631.831 390.198 630.821 388.065 630.316C385.932 629.811 380.068 629.474 378.824 628.464C377.58 627.454 377.047 623.75 376.869 621.225Z" fill="#E3BB51"/>
<path d="M604.924 428.368C604.716 425.392 603.049 423.804 601.382 423.804C599.716 423.804 598.049 425.392 597.84 428.368C597.632 431.344 597.007 435.709 595.549 436.9C594.09 438.09 587.214 438.487 584.714 439.082C582.214 439.678 581.797 440.868 581.797 442.257C581.797 443.646 583.256 444.638 584.714 445.035C586.173 445.432 593.673 446.424 595.132 447.416C596.59 448.408 597.751 454.956 598.049 456.94C598.465 459.718 599.299 460.512 601.382 460.512C603.466 460.512 604.299 459.718 604.716 456.94C605.014 454.956 606.175 448.408 607.633 447.416C609.092 446.424 616.592 445.432 618.051 445.035C619.509 444.638 620.968 443.646 620.968 442.257C620.968 440.868 620.551 439.678 618.051 439.082C615.55 438.487 608.675 438.09 607.216 436.9C605.758 435.709 605.133 431.344 604.924 428.368Z" fill="#E3BB51"/>
<path d="M547.321 284.875C547.112 281.899 545.446 280.311 543.779 280.311C542.112 280.311 540.445 281.899 540.237 284.875C540.028 287.851 539.403 292.217 537.945 293.407C536.486 294.598 529.611 294.994 527.11 295.59C524.61 296.185 524.194 297.375 524.194 298.764C524.194 300.153 525.652 301.145 527.11 301.542C528.569 301.939 536.07 302.931 537.528 303.923C538.987 304.915 540.147 311.463 540.445 313.447C540.862 316.225 541.695 317.019 543.779 317.019C545.862 317.019 546.696 316.225 547.112 313.447C547.41 311.463 548.571 304.915 550.029 303.923C551.488 302.931 558.989 301.939 560.447 301.542C561.906 301.145 563.364 300.153 563.364 298.764C563.364 297.375 562.947 296.185 560.447 295.59C557.947 294.994 551.071 294.598 549.613 293.407C548.154 292.217 547.529 287.851 547.321 284.875Z" fill="#E3BB51"/>
<path d="M614.141 319.358C613.933 316.382 612.266 314.794 610.599 314.794C608.932 314.794 607.265 316.382 607.057 319.358C606.849 322.334 606.224 326.699 604.765 327.89C603.307 329.08 596.431 329.477 593.931 330.072C591.431 330.668 591.014 331.858 591.014 333.247C591.014 334.636 592.472 335.628 593.931 336.025C595.389 336.422 602.89 337.414 604.348 338.406C605.807 339.398 606.968 345.946 607.265 347.93C607.682 350.708 608.516 351.502 610.599 351.502C612.683 351.502 613.516 350.708 613.933 347.93C614.23 345.946 615.391 339.398 616.85 338.406C618.308 337.414 625.809 336.422 627.267 336.025C628.726 335.628 630.184 334.636 630.184 333.247C630.184 331.858 629.768 330.668 627.267 330.072C624.767 329.477 617.891 329.08 616.433 327.89C614.974 326.699 614.349 322.334 614.141 319.358Z" fill="#E3BB51"/>
<path d="M556.537 361.627C556.329 358.651 554.662 357.063 552.995 357.063C551.329 357.063 549.662 358.651 549.453 361.627C549.245 364.603 548.62 368.969 547.161 370.159C545.703 371.35 538.827 371.746 536.327 372.342C533.827 372.937 533.41 374.127 533.41 375.516C533.41 376.905 534.869 377.897 536.327 378.294C537.786 378.691 545.286 379.683 546.745 380.675C548.203 381.667 549.364 388.215 549.662 390.199C550.078 392.977 550.912 393.771 552.995 393.771C555.079 393.771 555.912 392.977 556.329 390.199C556.627 388.215 557.787 381.667 559.246 380.675C560.704 379.683 568.205 378.691 569.664 378.294C571.122 377.897 572.581 376.905 572.581 375.516C572.581 374.127 572.164 372.937 569.664 372.342C567.163 371.746 560.288 371.35 558.829 370.159C557.371 368.969 556.746 364.603 556.537 361.627Z" fill="#E3BB51"/>
<path d="M314.129 272.204C333.173 271.548 364.12 274.919 377.304 287.648C391.221 279.162 417.851 282.493 433.233 291.686C450.524 300.939 479.666 327.342 490.653 346.79C499.443 362.348 519.952 402.659 530.938 422.461C541.926 446.506 557.124 469.136 571.956 488.23C587.338 508.033 596.128 517.933 623.961 533.492C656.19 548.343 675.234 547.636 703.067 548.343C734.18 549.133 779.713 541.006 802.419 541.713C799.539 570.634 779.378 650.167 752.304 685.762C732.81 714.683 698.733 743.048 663.594 761.296C635.369 774.75 576.037 798.913 495.968 798.913C466.79 783.096 438.304 741.107 429.126 699.685C425.691 644.605 409.35 618.357 400.56 591.483C384.446 546.222 363.204 525.713 336.103 532.078C326.581 534.739 315.975 539.857 313.397 547.636C312.234 551.63 310.023 560.618 310.484 564.623C311.06 569.628 309.908 592.432 309.908 596.325C309.908 600.218 306.452 617.459 299.539 614.678C296.659 612.454 295.507 610.785 294.931 601.33C294.931 596.881 292.627 594.656 289.171 596.325C284.562 599.106 286.29 608.004 281.682 607.448C275.346 605.224 274.77 585.757 259.927 574.51C236.488 562.487 199.865 570.267 194.005 567.438C166.905 556.83 147.128 525.713 150.057 495.303C152.255 452.871 166.172 450.042 174.961 436.604C184.483 423.875 225.501 350.326 248.94 329.816C264.322 296.578 272.379 276.069 314.129 272.204Z" fill="#CCA66C"/>
<path d="M436.452 496.717C426.929 503.082 415.006 498.839 413.013 492.474C406.42 461.357 418.139 423.875 393.236 359.519C380.784 326.281 370.529 319.329 371.262 295.991C375.656 273.361 426.196 283.969 437.917 293.163C479.839 321.575 517.281 373.855 512.628 409.731C505.184 450.607 449.635 486.816 436.452 496.717Z" fill="#B78B4A"/>
<path d="M328.779 381.443C319.257 362.348 306.805 362.348 298.748 362.348C291.423 362.348 278.971 365.177 270.914 377.907C262.857 392.758 267.984 400.537 278.68 402.659C295.085 404.073 283.269 393.62 300.115 394.327C313.3 395.034 303.875 402.659 319.989 402.659C332.441 401.952 333.173 390.636 328.779 381.443Z" fill="#795621"/>
<path d="M300.691 565.177C292.627 564.065 278.226 566.847 270.737 571.851C271.89 576.857 272.915 575.744 274.77 582.975C276.339 589.093 278.226 594.098 281.682 596.879C284.562 598.547 286.686 587.563 291.475 587.424C296.264 587.285 297.35 592.687 297.811 594.654C298.272 596.622 299.249 605.651 301.267 606.334C304.559 606.046 305.451 597.155 305.876 588.536C306.452 576.857 302.42 568.514 300.691 565.177Z" fill="#B78B4A"/>
<path d="M207.908 503.102C206.18 495.315 199.075 490.866 192.931 487.529C188.835 485.304 180.258 484.748 173.922 487.529C169.313 489.754 164.705 495.872 160.097 510.888C157.793 524.793 158.986 532.365 160.714 538.483C165.323 548.494 171.7 548.835 179.147 541.264C180.876 537.926 182.604 535.146 186.018 532.023C188.899 527.017 196.387 525.349 202.147 520.899C206.18 517.98 208.484 510.888 207.908 503.102Z" fill="#B78B4A"/>
<path d="M190.627 512.001C182.562 514.781 176.226 522.012 173.346 526.461C173.346 524.236 172.77 521.455 173.346 515.894C173.922 512.557 175.65 505.883 180.834 501.433C184.29 498.467 188.485 499.366 191.203 501.989C193.507 504.214 196.387 509.22 190.627 512.001Z" fill="#795621"/>
<path d="M194.005 567.438C188.364 565.179 183.748 562.54 179.147 559.085C178.571 557.425 179.147 555.1 186.06 559.085C194.7 564.067 213.134 556.28 218.894 551.831C224.654 547.382 242.512 530.14 247.696 527.915C252.88 525.691 263.249 519.573 267.281 522.354C271.313 525.135 267.857 530.14 264.977 531.252C262.097 532.365 242.512 542.932 238.479 548.494C234.447 554.056 224.654 562.954 218.318 565.735C216.014 566.746 211.636 568.396 205.645 567.97C199.918 568.188 196.429 568.516 194.005 567.438Z" fill="#A17738"/>
<path d="M407.834 204.671C349.078 213.84 316.244 236.374 296.659 275.306C320.277 270.857 341.59 271.413 362.903 279.755C370.968 270.301 417.627 246.941 472.35 240.267C486.751 238.599 527.65 244.16 555.876 257.508C577.765 267.859 595.622 275.862 600.807 270.3C602.535 267.519 593.894 250.835 584.101 244.16C532.258 209.122 472.35 196.329 407.834 204.671Z" fill="#B78B4A"/>
<path d="M407.834 204.671C349.078 213.84 316.244 236.373 296.659 275.305C300.691 274.194 309.908 273.081 312.788 273.081C314.516 269.744 341.014 249.166 358.871 241.379C376.728 233.593 398.042 221.357 436.06 219.689C474.078 218.02 508.641 221.913 528.802 230.256C548.963 238.598 572.581 248.61 584.102 258.621C595.622 268.632 596.198 271.969 600.807 270.3C602.535 267.519 593.894 250.835 584.102 244.16C532.258 209.122 472.35 196.329 407.834 204.671Z" fill="#A17738"/>
<path d="M618.102 219.238C497.978 154.882 380.235 226.726 340.438 273.637C351.425 275.052 368.671 280.318 376.728 288.098C392.11 279.611 419.593 286.64 439.37 300.077C446.694 290.883 482.162 254.749 526.821 237.784C558.488 225.754 600.825 232.198 614.717 229.166C620.425 227.92 624.694 222.774 618.102 219.238Z" fill="#B78B4A"/>
<path d="M618.102 219.239C497.978 154.883 380.235 226.726 340.438 273.637C343.894 274.194 351.383 275.306 362.903 279.755C377.88 263.07 388.825 256.952 408.41 243.048C426.843 231.368 458.525 218.02 479.263 213.014C503.456 208.565 520.737 206.896 543.203 211.346C574.885 217.621 634.217 229.143 618.102 219.239Z" fill="#A27738"/>
<path d="M436.452 496.717C426.929 503.081 415.006 498.839 413.013 492.473C406.42 461.357 418.139 423.875 393.236 359.519C380.784 326.281 370.241 317.973 371.262 295.991C373.171 280.491 403.934 280.49 409.794 281.905C413.456 281.905 409.794 288.857 406.132 293.101C402.469 297.344 401.737 309.366 409.794 323.51C417.851 337.655 436.452 380.087 440.557 399.889C444.663 419.69 443.487 484.753 436.452 496.717Z" fill="#A27738"/>
</svg>
